<mxfile host="app.diagrams.net" modified="2021-03-02T16:12:48.314Z" agent="5.0 (Windows NT 10.0; Win64; x64) AppleWebKit/537.36 (KHTML, like Gecko) Chrome/88.0.4324.190 Safari/537.36" etag="KujxKq9uIVCVjZbs2WzP" version="14.4.3" type="github">
  <diagram id="A_dzpYA_JPHo5koObFst" name="Page-1">
    <mxGraphModel dx="1210" dy="607" grid="1" gridSize="10" guides="1" tooltips="1" connect="1" arrows="1" fold="1" page="1" pageScale="1" pageWidth="1169" pageHeight="827" math="0" shadow="0">
      <root>
        <mxCell id="0" />
        <mxCell id="1" parent="0" />
      </root>
    </mxGraphModel>
  </diagram>
</mxfile>
